<?xml version="1.0" encoding="UTF-8" standalone="no"?>
<svg
   width="800"
   height="480"
   overflow="hidden"
   version="1.1"
   id="svg164"
   sodipodi:docname="project_workflow.svg"
   inkscape:version="1.2 (dc2aedaf03, 2022-05-15)"
   xmlns:inkscape="http://www.inkscape.org/namespaces/inkscape"
   xmlns:sodipodi="http://sodipodi.sourceforge.net/DTD/sodipodi-0.dtd"
   xmlns="http://www.w3.org/2000/svg"
   xmlns:svg="http://www.w3.org/2000/svg">
  <sodipodi:namedview
     id="namedview166"
     pagecolor="#ffffff"
     bordercolor="#000000"
     borderopacity="0.25"
     inkscape:showpageshadow="2"
     inkscape:pageopacity="0.0"
     inkscape:pagecheckerboard="true"
     inkscape:deskcolor="#d1d1d1"
     showgrid="false"
     inkscape:zoom="1.3111111"
     inkscape:cx="602.92373"
     inkscape:cy="334.0678"
     inkscape:window-width="2560"
     inkscape:window-height="1494"
     inkscape:window-x="-11"
     inkscape:window-y="-11"
     inkscape:window-maximized="1"
     inkscape:current-layer="svg164" />
  <defs
     id="defs50">
    <clipPath
       id="clip0">
      <rect
         x="0"
         y="0"
         width="1280"
         height="720"
         id="rect2" />
    </clipPath>
    <clipPath
       id="clip1">
      <rect
         x="269"
         y="210"
         width="57"
         height="57"
         id="rect5" />
    </clipPath>
    <clipPath
       id="clip2">
      <rect
         x="269"
         y="210"
         width="57"
         height="57"
         id="rect8" />
    </clipPath>
    <clipPath
       id="clip3">
      <rect
         x="269"
         y="210"
         width="57"
         height="57"
         id="rect11" />
    </clipPath>
    <clipPath
       id="clip4">
      <rect
         x="256"
         y="122"
         width="84"
         height="84"
         id="rect14" />
    </clipPath>
    <clipPath
       id="clip5">
      <rect
         x="256"
         y="122"
         width="84"
         height="84"
         id="rect17" />
    </clipPath>
    <clipPath
       id="clip6">
      <rect
         x="256"
         y="122"
         width="84"
         height="84"
         id="rect20" />
    </clipPath>
    <clipPath
       id="clip7">
      <rect
         x="254"
         y="270"
         width="87"
         height="87"
         id="rect23" />
    </clipPath>
    <clipPath
       id="clip8">
      <rect
         x="254"
         y="270"
         width="87"
         height="87"
         id="rect26" />
    </clipPath>
    <clipPath
       id="clip9">
      <rect
         x="254"
         y="270"
         width="87"
         height="87"
         id="rect29" />
    </clipPath>
    <clipPath
       id="clip10">
      <rect
         x="250"
         y="422"
         width="96"
         height="96"
         id="rect32" />
    </clipPath>
    <clipPath
       id="clip11">
      <rect
         x="250"
         y="422"
         width="96"
         height="96"
         id="rect35" />
    </clipPath>
    <clipPath
       id="clip12">
      <rect
         x="250"
         y="422"
         width="96"
         height="96"
         id="rect38" />
    </clipPath>
    <clipPath
       id="clip13">
      <rect
         x="269"
         y="361"
         width="57"
         height="56"
         id="rect41" />
    </clipPath>
    <clipPath
       id="clip14">
      <rect
         x="269"
         y="361"
         width="57"
         height="56"
         id="rect44" />
    </clipPath>
    <clipPath
       id="clip15">
      <rect
         x="269"
         y="361"
         width="57"
         height="56"
         id="rect47" />
    </clipPath>
  </defs>
  <g
     clip-path="url(#clip0)"
     id="g162"
     transform="translate(-197.54236,-104.49153)">
    <rect
       x="0"
       y="0"
       width="1280"
       height="720"
       fill="#ffffff"
       id="rect52" />
    <text
       font-family="Calibri, Calibri_MSFontService, sans-serif"
       font-weight="400"
       font-size="24px"
       transform="translate(351.087,171)"
       id="text60">./code/01_extract_data.R<tspan
   font-size="24px"
   x="-8.7272301"
   y="150"
   id="tspan54">./code/0</tspan><tspan
   font-size="24px"
   x="74.972801"
   y="150"
   id="tspan56">2</tspan><tspan
   font-size="24px"
   x="87.139397"
   y="150"
   id="tspan58">_clean_data.R</tspan></text>
    <g
       clip-path="url(#clip1)"
       id="g68">
      <g
         clip-path="url(#clip2)"
         id="g66">
        <g
           clip-path="url(#clip3)"
           id="g64">
          <path
             d="m 297.5,213.562 c -0.328,0 -0.594,0.266 -0.594,0.594 v 47.24 c 0,0.003 -0.002,0.006 -0.006,0.006 -10e-4,0 -0.003,-10e-4 -0.004,-0.002 l -7.882,-7.882 c -0.236,-0.228 -0.612,-0.222 -0.84,0.014 -0.222,0.23 -0.222,0.595 0,0.825 l 8.906,8.907 c 0.232,0.231 0.608,0.231 0.84,0 l 8.906,-8.907 c 0.236,-0.228 0.242,-0.603 0.015,-0.839 -0.228,-0.236 -0.604,-0.243 -0.84,-0.015 -0.005,0.005 -0.01,0.01 -0.015,0.015 l -7.882,7.882 c -0.002,0.003 -0.006,0.003 -0.009,0 -0.001,-10e-4 -0.001,-0.002 -0.001,-0.004 v -47.24 c 0,-0.328 -0.266,-0.594 -0.594,-0.594 z"
             id="path62" />
        </g>
      </g>
    </g>
    <g
       clip-path="url(#clip4)"
       id="g78">
      <g
         clip-path="url(#clip5)"
         id="g76">
        <g
           clip-path="url(#clip6)"
           id="g74">
          <path
             d="m 291,178.875 c -1.668,0.002 -3.02,1.355 -3.022,3.023 v 3.579 c 0,1.669 1.353,3.022 3.022,3.022 1.669,0 3.022,-1.353 3.022,-3.022 v -3.579 c -0.002,-1.668 -1.354,-3.021 -3.022,-3.023 z m 1.272,6.602 c 0,0.703 -0.569,1.272 -1.272,1.272 -0.703,0 -1.272,-0.569 -1.272,-1.272 v -3.579 c 0,-0.703 0.569,-1.272 1.272,-1.272 0.703,0 1.272,0.569 1.272,1.272 z"
             id="path70" />
          <path
             d="m 335.812,149.063 -12.593,-12.337 c -0.434,-0.424 -0.949,-0.756 -1.515,-0.975 l -11.661,-4.375 c -0.966,-0.407 -2.083,-0.155 -2.78,0.627 -2.429,2.511 -5.769,3.935 -9.263,3.95 -3.472,-0.01 -6.794,-1.416 -9.219,-3.9 -0.712,-0.759 -1.803,-1.029 -2.787,-0.69 l -11.714,4.395 c -0.556,0.217 -1.062,0.545 -1.488,0.962 l -12.604,12.343 c -0.5,0.564 -0.744,1.309 -0.677,2.059 0.062,0.709 0.415,1.362 0.976,1.801 l 11.526,8.689 c 0.999,0.798 2.435,0.734 3.36,-0.149 l 2.485,-2.335 c 0.004,-0.003 0.009,-0.003 0.013,0 0.001,0.002 0.002,0.004 0.002,0.006 v 38.991 h 40.252 V 159.22 c 0,-0.005 0.004,-0.009 0.009,-0.009 0.002,0 0.004,10e-4 0.006,0.003 l 2.465,2.316 c 0.924,0.904 2.378,0.975 3.385,0.164 l 11.534,-8.779 c 0.554,-0.44 0.903,-1.089 0.963,-1.794 0.068,-0.75 -0.176,-1.494 -0.675,-2.058 z m -33.78,47.312 v -7.087 c -0.026,-0.678 0.459,-1.269 1.129,-1.376 0.405,-0.042 0.805,0.113 1.076,0.417 0.436,0.488 1.184,0.53 1.672,0.095 0.252,-0.226 0.396,-0.548 0.395,-0.886 v -4.065 c 0.001,-1.092 0.887,-1.976 1.979,-1.974 0.131,0 0.263,0.013 0.392,0.039 0.939,0.225 1.595,1.074 1.575,2.04 v 12.797 z m 32.425,-44.846 -11.566,8.805 c -0.323,0.24 -0.773,0.215 -1.067,-0.06 l -3.975,-3.735 c -0.352,-0.331 -0.905,-0.314 -1.236,0.038 -0.153,0.162 -0.238,0.376 -0.238,0.598 v 39.2 H 312 v -12.797 c 0.056,-2.057 -1.565,-3.77 -3.622,-3.826 -1.384,-0.038 -2.675,0.694 -3.352,1.901 -0.322,0.587 -0.485,1.248 -0.472,1.918 v 2.868 c -0.49,-0.225 -1.031,-0.315 -1.567,-0.262 -1.559,0.203 -2.72,1.539 -2.705,3.111 v 7.087 h -20.657 v -39.288 c 0,-0.483 -0.391,-0.875 -0.875,-0.875 -0.223,0 -0.437,0.085 -0.599,0.238 l -3.994,3.754 c -0.312,0.272 -0.776,0.274 -1.091,0.006 l -11.515,-8.676 c -0.175,-0.14 -0.283,-0.348 -0.297,-0.572 -0.025,-0.248 0.046,-0.496 0.2,-0.692 l 12.566,-12.308 c 0.256,-0.248 0.559,-0.443 0.891,-0.573 l 11.631,-4.364 c 0.325,-0.114 0.686,-0.039 0.938,0.196 2.759,2.851 6.552,4.467 10.52,4.482 3.989,-0.019 7.8,-1.653 10.564,-4.529 0.211,-0.227 0.542,-0.297 0.827,-0.175 l 11.68,4.384 c 0.342,0.132 0.653,0.331 0.916,0.586 l 12.534,12.275 c 0.169,0.199 0.252,0.458 0.229,0.718 -0.015,0.222 -0.121,0.427 -0.293,0.567 z"
             id="path72" />
        </g>
      </g>
    </g>
    <g
       clip-path="url(#clip7)"
       id="g98">
      <g
         clip-path="url(#clip8)"
         id="g96">
        <g
           clip-path="url(#clip9)"
           id="g94">
          <path
             d="m 268.5,277.25 v 72.5 h 58 v -72.5 z m 56.188,1.812 v 13.594 h -54.376 v -13.594 z m -54.376,68.876 v -53.469 h 54.376 v 53.469 z"
             id="path80" />
          <path
             d="m 297.5,302.625 c -10.01,0 -18.125,8.115 -18.125,18.125 0,10.01 8.115,18.125 18.125,18.125 10.01,0 18.125,-8.115 18.125,-18.125 -0.012,-10.005 -8.12,-18.113 -18.125,-18.125 z m 0,34.437 c -9.009,0 -16.312,-7.303 -16.312,-16.312 0,-9.009 7.303,-16.312 16.312,-16.312 9.009,0 16.312,7.303 16.312,16.312 -0.01,9.005 -7.307,16.302 -16.312,16.312 z"
             id="path82" />
          <path
             d="m 297.5,308.062 c -7.007,0 -12.688,5.681 -12.688,12.688 0,7.007 5.681,12.688 12.688,12.688 7.007,0 12.688,-5.681 12.688,-12.688 -0.008,-7.004 -5.684,-12.68 -12.688,-12.688 z m 0,23.563 c -5.072,-0.008 -9.466,-3.518 -10.596,-8.462 0.39,0.112 0.795,0.164 1.201,0.155 1.122,-0.041 2.175,-0.553 2.9,-1.411 0.861,-0.942 2.323,-1.009 3.266,-0.147 0.051,0.047 0.101,0.096 0.148,0.147 1.451,1.702 4.008,1.905 5.709,0.453 0.163,-0.139 0.315,-0.29 0.453,-0.453 0.427,-0.501 1.053,-0.789 1.711,-0.789 h 0.011 c 0.655,0.001 1.275,0.29 1.698,0.789 0.993,1.2 2.605,1.694 4.099,1.255 -1.129,4.947 -5.526,8.457 -10.6,8.463 z m 10.858,-10.534 c -0.937,0.673 -2.233,0.515 -2.982,-0.363 -0.766,-0.902 -1.889,-1.422 -3.073,-1.423 h -0.009 c -1.188,0 -2.316,0.521 -3.088,1.424 -0.86,0.943 -2.322,1.009 -3.264,0.148 -0.052,-0.047 -0.101,-0.096 -0.148,-0.148 -0.77,-0.902 -1.896,-1.422 -3.082,-1.424 v 0 c -1.186,10e-4 -2.312,0.521 -3.081,1.424 -0.399,0.472 -0.978,0.754 -1.596,0.778 -0.496,0.02 -0.985,-0.127 -1.388,-0.417 0,-0.114 -0.017,-0.226 -0.017,-0.34 0,-6.006 4.868,-10.875 10.875,-10.875 6.006,0 10.875,4.869 10.875,10.875 -0.005,0.115 -0.019,0.227 -0.022,0.341 z"
             id="path84" />
          <path
             d="m 297.953,289.031 c 1.752,0 3.172,-1.42 3.172,-3.172 0,-1.751 -1.42,-3.171 -3.172,-3.171 -1.752,0 -3.172,1.42 -3.172,3.171 0,1.752 1.42,3.172 3.172,3.172 z m 0,-4.531 c 0.751,0 1.359,0.609 1.359,1.359 0,0.751 -0.608,1.36 -1.359,1.36 -0.751,0 -1.359,-0.609 -1.359,-1.36 0,-0.75 0.608,-1.359 1.359,-1.359 z"
             id="path86" />
          <path
             d="m 307.016,289.031 c 1.751,0 3.172,-1.42 3.172,-3.172 0,-1.751 -1.421,-3.171 -3.172,-3.171 -1.752,0 -3.172,1.42 -3.172,3.171 0,1.752 1.42,3.172 3.172,3.172 z m 0,-4.531 c 0.75,0 1.359,0.609 1.359,1.359 0,0.751 -0.609,1.36 -1.359,1.36 -0.751,0 -1.36,-0.609 -1.36,-1.36 0,-0.75 0.609,-1.359 1.36,-1.359 z"
             id="path88" />
          <path
             d="m 316.078,289.031 c 1.752,0 3.172,-1.42 3.172,-3.172 0,-1.751 -1.42,-3.171 -3.172,-3.171 -1.752,0 -3.172,1.42 -3.172,3.171 0,1.752 1.42,3.172 3.172,3.172 z m 0,-4.531 c 0.751,0 1.36,0.609 1.36,1.359 0,0.751 -0.609,1.36 -1.36,1.36 -0.751,0 -1.359,-0.609 -1.359,-1.36 0,-0.75 0.608,-1.359 1.359,-1.359 z"
             id="path90" />
          <path
             d="M 288.438,282.688 H 275.75 v 6.343 h 12.688 z m -1.813,4.531 h -9.063 V 284.5 h 9.063 z"
             id="path92" />
        </g>
      </g>
    </g>
    <g
       clip-path="url(#clip10)"
       id="g112">
      <g
         clip-path="url(#clip11)"
         id="g110">
        <g
           clip-path="url(#clip12)"
           id="g108">
          <path
             d="m 306,441.13 h -7 v -1.147 c -0.016,-1.41 -0.933,-2.652 -2.276,-3.083 -1.669,-0.556 -2.777,-2.141 -2.724,-3.9 0.155,-2.078 1.807,-3.73 3.885,-3.884 2.208,-0.063 4.049,1.676 4.112,3.884 0.002,0.039 0.002,0.078 0.002,0.116 0,0.552 0.448,1 1,1 0.552,0 1,-0.448 1,-1 10e-4,-3.314 -2.684,-6.001 -5.998,-6.002 -0.057,0 -0.114,0 -0.171,0.002 -3.134,0.195 -5.632,2.692 -5.83,5.826 -0.085,2.642 1.578,5.025 4.086,5.858 0.53,0.153 0.899,0.632 0.914,1.183 v 1.147 h -7 c -13.249,0.015 -23.985,10.751 -24,24 V 513 h 64 v -47.87 c -0.015,-13.249 -10.751,-23.985 -24,-24 z M 328,511 h -60 v -45.87 c 0.014,-12.145 9.855,-21.986 22,-22 h 16 c 12.145,0.014 21.986,9.855 22,22 z"
             id="path100" />
          <path
             d="m 309.965,446.836 -0.152,-0.011 h -23.635 l -0.152,0.011 c -6.028,0.932 -10.68,5.793 -11.348,11.856 l -3.847,36.991 c -0.087,0.438 0.01,0.893 0.269,1.257 0.309,0.431 0.782,0.715 1.308,0.785 l 7.552,0.758 c 0.104,0.021 0.211,0.032 0.317,0.032 0.337,-0.002 0.665,-0.106 0.94,-0.3 0.423,-0.301 0.704,-0.761 0.779,-1.274 l 1.1,-8.094 c 0.002,-0.005 0.007,-0.008 0.013,-0.006 0.003,10e-4 0.005,0.003 0.006,0.006 V 504 c 0,0.552 0.448,1 1,1 h 27.763 c 0.552,0 1,-0.448 1,-1 v -14.785 c 0.002,-0.005 0.007,-0.008 0.013,-0.006 0.003,10e-4 0.005,0.003 0.006,0.006 l 1.034,7.785 c 0.161,0.923 0.997,1.572 1.931,1.5 l 7.738,-0.79 c 0.876,-0.168 1.507,-0.938 1.5,-1.83 0,-0.033 -0.002,-0.067 -0.006,-0.1 l -3.786,-37.09 c -0.66,-6.065 -5.313,-10.928 -11.343,-11.854 z m -21.813,1.989 h 0.313 l 7.169,23.3 c 10e-4,0.005 -0.002,0.011 -0.007,0.012 -0.004,10e-4 -0.009,0 -0.011,-0.004 L 284.865,454.93 Z m 2.405,0 h 14.876 l -7.428,24.141 c -0.002,0.005 -0.007,0.008 -0.013,0.006 -0.003,-10e-4 -0.005,-0.003 -0.006,-0.006 z m 16.968,0 h 0.313 l 3.287,6.105 -10.751,17.2 c -0.003,0.005 -0.009,0.006 -0.014,0.003 -0.003,-0.003 -0.005,-0.007 -0.004,-0.011 z m -23.412,21.742 c -0.552,0 -1,0.448 -1,1 v 2.3 l -3.076,22.619 -7.208,-0.729 3.838,-36.857 c 0.552,-4.973 4.261,-9.015 9.168,-9.992 l -3.282,6.094 14.263,22.82 -5.377,8.6 V 503 h -6.326 v -31.433 c 0,-0.552 -0.448,-1 -1,-1 z m 31.765,25.923 -3,-22.616 v -2.307 c 0,-0.552 -0.448,-1 -1,-1 -0.552,0 -1,0.448 -1,1 V 503 h -17.439 v -16 l 20,-31.995 -3.283,-6.1 c 4.935,0.924 8.67,4.992 9.17,9.988 l 3.762,36.86 z"
             id="path102" />
          <path
             d="m 297.223,487.072 c -0.854,-10e-4 -1.546,0.691 -1.547,1.545 -10e-4,0.854 0.691,1.546 1.545,1.547 0.854,0 1.546,-0.691 1.547,-1.545 0,-0.001 0,-0.001 0,-0.002 -0.003,-0.852 -0.693,-1.542 -1.545,-1.545 z"
             id="path104" />
          <path
             d="m 297.223,492.48 c -0.854,-0.001 -1.546,0.691 -1.547,1.545 -10e-4,0.854 0.691,1.546 1.545,1.547 0.854,10e-4 1.546,-0.691 1.547,-1.545 0,0 0,-10e-4 0,-10e-4 -0.003,-0.852 -0.693,-1.543 -1.545,-1.546 z"
             id="path106" />
        </g>
      </g>
    </g>
    <text
       font-family="Calibri, Calibri_MSFontService, sans-serif"
       font-weight="400"
       font-size="24px"
       transform="translate(349.174,478)"
       id="text118">./code/0<tspan
   font-size="24px"
   x="83.699997"
   y="0"
   id="tspan114">3</tspan><tspan
   font-size="24px"
   x="95.866699"
   y="0"
   id="tspan116">_automate_reports.R</tspan></text>
    <g
       clip-path="url(#clip13)"
       id="g126">
      <g
         clip-path="url(#clip14)"
         id="g124">
        <g
           clip-path="url(#clip15)"
           id="g122">
          <path
             d="m 28,3.5 c -0.3222,0 -0.5833,0.26117 -0.5833,0.58333 V 50.4945 c -10e-5,0.0032 -0.0027,0.0058 -0.0059,0.0058 -0.0015,-1e-4 -0.003,-7e-4 -0.0041,-0.0017 l -7.7443,-7.7444 c -0.2317,-0.2238 -0.601,-0.2174 -0.8248,0.0144 -0.2184,0.226 -0.2184,0.5844 0,0.8105 l 8.75,8.75 c 0.2278,0.2277 0.597,0.2277 0.8248,0 l 8.75,-8.75 c 0.2318,-0.2238 0.2382,-0.5931 0.0144,-0.8249 -0.2239,-0.2317 -0.5932,-0.2381 -0.8249,-0.0143 -0.0049,0.0047 -0.0097,0.0095 -0.0143,0.0143 l -7.7444,7.7444 c -0.0022,0.0023 -0.006,0.0022 -0.0082,-1e-4 -0.001,-0.0011 -0.0017,-0.0025 -0.0017,-0.004 V 4.08333 C 28.5833,3.76117 28.3222,3.5 28,3.5 Z"
             transform="matrix(1.01786,0,0,1,269,361)"
             id="path120" />
        </g>
      </g>
    </g>
    <text
       font-family="Calibri, Calibri_MSFontService, sans-serif"
       font-weight="400"
       font-size="24px"
       transform="translate(714.057,407)"
       id="text158">all_full-<tspan
   font-size="24px"
   x="72.833298"
   y="0"
   id="tspan128">time_report</tspan><tspan
   font-size="24px"
   x="0"
   y="29"
   id="tspan130">all_part</tspan>-<tspan
   font-size="24px"
   x="82.333397"
   y="29"
   id="tspan132">time_report</tspan><tspan
   font-size="24px"
   x="0"
   y="58"
   id="tspan134">female_full</tspan><tspan
   font-size="24px"
   x="109.9"
   y="58"
   id="tspan136">-</tspan><tspan
   font-size="24px"
   x="117.233"
   y="58"
   id="tspan138">time_report</tspan><tspan
   font-size="24px"
   x="0"
   y="87"
   id="tspan140">female_part</tspan><tspan
   font-size="24px"
   x="119.4"
   y="87"
   id="tspan142">-</tspan><tspan
   font-size="24px"
   x="126.733"
   y="87"
   id="tspan144">time_report</tspan><tspan
   font-size="24px"
   x="0"
   y="116"
   id="tspan146">male_full</tspan><tspan
   font-size="24px"
   x="91.166702"
   y="116"
   id="tspan148">-</tspan><tspan
   font-size="24px"
   x="98.5"
   y="116"
   id="tspan150">time_report</tspan><tspan
   font-size="24px"
   x="0"
   y="144"
   id="tspan152">male_part</tspan><tspan
   font-size="24px"
   x="100.667"
   y="144"
   id="tspan154">-</tspan><tspan
   font-size="24px"
   x="108"
   y="144"
   id="tspan156">time_report</tspan></text>
    <path
       d="m 703.5,551.5 c -9.665,0 -17.5,-10.447 -17.5,-23.333 V 496.333 C 686,483.447 678.165,473 668.5,473 c 9.665,0 17.5,-10.447 17.5,-23.333 v -31.834 c 0,-12.886 7.835,-23.333 17.5,-23.333"
       stroke="#000000"
       stroke-width="1.33333"
       stroke-miterlimit="8"
       fill="none"
       fill-rule="evenodd"
       id="path160" />
  </g>
</svg>
